<svg data-content="changed" preserveAspectRatio="" class="overflow-visible w-full " id="aidSvg" xmlns="http://www.w3.org/2000/svg" xmlns:xlink="http://www.w3.org/1999/xlink" width="79.64mm" viewBox="0 0 225.75 54.7" overflow="visible">
    <defs>
      <clipPath id="aidSvg_clip-path">
        <path id="SVGID" d="M90.6,20.71a12.36,12.36,0,0,0-17.19-.27h0l-3,3s0,0,0,0l-6.07,6.07a2.13,2.13,0,0,0,1.5,3.62,2.08,2.08,0,0,0,1.5-.63l7.58-7.58,1.23-1.23A8.1,8.1,0,0,1,87.6,35.16a2.12,2.12,0,0,0,3,3,12.32,12.32,0,0,0,0-17.45Z" fill="none"></path>
      </clipPath>
      <clipPath id="aidSvg_clip-path-2">
        <path id="SVGID-2" data-name="SVGID" d="M65,17.09a12.34,12.34,0,0,0-8.73,21.07L71.9,53.83a2.11,2.11,0,0,0,1.5.62,2.15,2.15,0,0,0,1.5-.62,2.12,2.12,0,0,0,0-3L59.23,35.16A8.1,8.1,0,0,1,65,21.33a8.42,8.42,0,0,1,5.44,2.12l3-3A12.53,12.53,0,0,0,65,17.09Z" fill="none"></path>
      </clipPath>
      <clipPath id="aidSvg_clip-path-3">
        <path id="SVGID-3" data-name="SVGID" d="M78.6,33.22a2.12,2.12,0,0,0-3,3l7.07,7.07a2.11,2.11,0,0,0,1.5.62,2.12,2.12,0,0,0,1.5-3.62Z" fill="none"></path>
      </clipPath>
      <clipPath id="aidSvg_clip-path-4">
        <path id="SVGID-4" data-name="SVGID" d="M73.09,38.45a2.12,2.12,0,0,0-3,3l7.34,7.34a2.07,2.07,0,0,0,1.5.62,2.12,2.12,0,0,0,1.5-3.62Z" fill="none"></path>
      </clipPath>
    </defs>
    <g>
      <g>
        <path d="M110.15,26.72a5.31,5.31,0,0,1,4,1.61,6.09,6.09,0,0,1,1.56,4.43v9H111.9v-8.5a3,3,0,0,0-.79-2.23,2.83,2.83,0,0,0-2.1-.77,3.1,3.1,0,0,0-2.33.9,3.73,3.73,0,0,0-.88,2.71v7.89H102V21.29h3.76v7.48A4.86,4.86,0,0,1,110.15,26.72Z" fill="#26316a"></path>
        <path d="M128.22,27.13H132v14.6h-3.77V40.09a4.87,4.87,0,0,1-4.35,2,5.31,5.31,0,0,1-4-1.61,6.1,6.1,0,0,1-1.56-4.44v-9h3.77v8.5a3,3,0,0,0,.79,2.23,2.87,2.87,0,0,0,2.1.77,3.1,3.1,0,0,0,2.33-.9,3.76,3.76,0,0,0,.88-2.72Z" fill="#26316a"></path>
        <path d="M151.28,26.72a5.19,5.19,0,0,1,4,1.64,6.19,6.19,0,0,1,1.51,4.38v9H153V33a3,3,0,0,0-.64-2.05,2.3,2.3,0,0,0-1.81-.72,2.48,2.48,0,0,0-2,.84,3.69,3.69,0,0,0-.71,2.45v8.21H144.1V33a3,3,0,0,0-.64-2.05,2.3,2.3,0,0,0-1.81-.72,2.53,2.53,0,0,0-2,.84,3.59,3.59,0,0,0-.75,2.45v8.21h-3.76V27.13h3.76v1.55a4.54,4.54,0,0,1,4.06-2,4.33,4.33,0,0,1,4,2.1A4.94,4.94,0,0,1,151.28,26.72Z" fill="#26316a"></path>
        <path d="M170.81,27.13h3.77v14.6h-3.77V40a5.75,5.75,0,0,1-4.76,2.14,6.61,6.61,0,0,1-5-2.24A7.68,7.68,0,0,1,159,34.43,7.66,7.66,0,0,1,161.05,29a6.61,6.61,0,0,1,5-2.24,5.74,5.74,0,0,1,4.76,2.13Zm-6.95,10.26a3.88,3.88,0,0,0,2.89,1.15,3.94,3.94,0,0,0,2.91-1.15,4.38,4.38,0,0,0,0-5.92,4,4,0,0,0-2.91-1.16,3.89,3.89,0,0,0-2.89,1.16,4.41,4.41,0,0,0,0,5.92Z" fill="#26316a"></path>
        <path d="M185.81,26.72a5.29,5.29,0,0,1,4,1.61,6.09,6.09,0,0,1,1.56,4.43v9h-3.76v-8.5a3,3,0,0,0-.79-2.23,2.86,2.86,0,0,0-2.1-.77,3.1,3.1,0,0,0-2.34.9,3.77,3.77,0,0,0-.88,2.71v7.89H177.7V27.13h3.76v1.64A4.86,4.86,0,0,1,185.81,26.72Z" fill="#26316a"></path>
        <path d="M196.12,25.38a2.22,2.22,0,0,1-1.62-.69,2.19,2.19,0,0,1-.69-1.62,2.26,2.26,0,0,1,.69-1.63,2.19,2.19,0,0,1,1.62-.7,2.22,2.22,0,0,1,1.65.7,2.29,2.29,0,0,1,.68,1.63,2.21,2.21,0,0,1-.68,1.62A2.25,2.25,0,0,1,196.12,25.38Zm-1.87,16.35V27.13H198v14.6Z" fill="#26316a"></path>
        <path d="M209.52,30.75h-3.3v6.07a1.41,1.41,0,0,0,.38,1.11,1.7,1.7,0,0,0,1.11.4c.48,0,1.09,0,1.81,0v3.42c-2.59.29-4.42,0-5.48-.73s-1.59-2.17-1.59-4.18V30.75h-2.54V27.13h2.54V24.18L206.22,23v4.09h3.3Z" fill="#26316a"></path>
        <path d="M221.72,27.13h4l-5.32,14.62a9.65,9.65,0,0,1-3,4.54,6.9,6.9,0,0,1-4.68,1.27v-3.5a3.79,3.79,0,0,0,2.41-.64,4.53,4.53,0,0,0,1.41-2.16l-6-14.13h4.11l3.81,9.81Z" fill="#26316a"></path>
        <path d="M14.82,23.92h3.77V41.39H14.82V38.87a7.07,7.07,0,0,1-6.12,3,8.2,8.2,0,0,1-6.15-2.67A9.1,9.1,0,0,1,0,32.65a9.07,9.07,0,0,1,2.55-6.53A8.22,8.22,0,0,1,8.7,23.46a7.1,7.1,0,0,1,6.12,2.94ZM5.35,36.65a5.31,5.31,0,0,0,4,1.59,5.3,5.3,0,0,0,3.94-1.59,5.85,5.85,0,0,0,0-8A5.3,5.3,0,0,0,9.3,27.06a5.31,5.31,0,0,0-4,1.59,5.85,5.85,0,0,0,0,8Z" fill="#26316a"></path>
        <path d="M24.83,20.58a2.33,2.33,0,0,1-1.7.72,2.46,2.46,0,0,1-2.41-2.42,2.42,2.42,0,0,1,2.41-2.41,2.27,2.27,0,0,1,1.71.72,2.39,2.39,0,0,1,0,3.39ZM21.25,41.39V23.92H25V41.39Z" fill="#26316a"></path>
        <path d="M41.48,16.93h3.77V41.39H41.48V38.87a7.07,7.07,0,0,1-6.12,3,8.2,8.2,0,0,1-6.15-2.67,9.1,9.1,0,0,1-2.55-6.52,9.07,9.07,0,0,1,2.55-6.53,8.22,8.22,0,0,1,6.15-2.66,7.1,7.1,0,0,1,6.12,2.94ZM32,36.65a5.7,5.7,0,0,0,7.9,0,5.88,5.88,0,0,0,0-8,5.7,5.7,0,0,0-7.9,0,5.44,5.44,0,0,0-1.57,4A5.44,5.44,0,0,0,32,36.65Z" fill="#26316a"></path>
      </g>
      <g>
        <path id="heartCircle" d="M73.4,15.53a7.66,7.66,0,1,1,6.79-4.08A7.67,7.67,0,0,1,73.4,15.53Zm0-11.08a3.48,3.48,0,0,0-1,.15,3.42,3.42,0,0,0-.59,6.29,3.43,3.43,0,0,0,4.62-1.42h0a3.42,3.42,0,0,0-3-5Z" fill="#fdcd11" style="translate: none; rotate: none; scale: none; transform-origin: 0px 0px; opacity: 1;" data-svg-origin="65.75804901123047 0.21001847088336945" transform="matrix(1,0,0,1,0,-6.17702)"></path>
        <g>
          <g id="heartRightGrp" style="opacity: 1; translate: none; rotate: none; scale: none; transform-origin: 0px 0px;" data-svg-origin="78.04999923706055 28.90999984741211" transform="matrix(1,0,0,1,0,0)">
            <g clip-path="url(#aidSvg_clip-path)">
              <polyline id="heartRight" points="63.71 33.3 76.34 20.57 80.64 19.04 86.52 20.02 90.3 22.91 92.17 26.74 92.39 31.08 91.15 34.7 87.41 38.78" fill="none" stroke="#2bb9ec" stroke-miterlimit="10" stroke-width="4" style="stroke-dasharray: 51; stroke-dashoffset: 0px;"></polyline>
            </g>
          </g>
          <g id="heartLeftGrp" style="opacity: 1; translate: none; rotate: none; scale: none; transform-origin: 0px 0px;" data-svg-origin="70.10000038146973 36.93500328063965" transform="matrix(1,0,0,1,0,0)">
            <g clip-path="url(#aidSvg_clip-path-2)">
              <polyline id="heartLeft" points="72.64 22.18 69.47 20.06 66.64 19.42 63.28 19.42 60.52 20.27 57.71 21.55 56.47 23.55 55.2 26.7 54.52 29.63 54.77 31.89 55.41 34.14 56.64 36.48 58.52 38.25 61.79 40.82 66.56 45.59 75.52 54.45" fill="none" stroke="#2bb9ec" stroke-miterlimit="10" stroke-width="4" style="stroke-dasharray: 58; stroke-dashoffset: 0px;"></polyline>
            </g>
            <g clip-path="url(#aidSvg_clip-path-3)">
              <line id="_-.heartDash-" class="heartDash" data-name="-.heartDash-" x1="75.52" y1="33.14" x2="85.68" y2="43.44" fill="none" stroke="#2bb9ec" stroke-miterlimit="10" stroke-width="4" style="stroke-dasharray: 15; stroke-dashoffset: 0px;"></line>
            </g>
            <g clip-path="url(#aidSvg_clip-path-4)">
              <path id="_-.heartDash--2" class="heartDash" data-name="-.heartDash-" d="M70,38.43c.17.09,10.37,10.49,10.37,10.49" fill="none" stroke="#2bb9ec" stroke-miterlimit="10" stroke-width="4" style="stroke-dasharray: 15; stroke-dashoffset: 0px;"></path>
            </g>
          </g>
        </g>
      </g>
    </g>
  </svg>